<?xml version="1.0" standalone="no"?>
<!DOCTYPE svg PUBLIC "-//W3C//DTD SVG 20010904//EN"
 "http://www.w3.org/TR/2001/REC-SVG-20010904/DTD/svg10.dtd">
<svg version="1.0" xmlns="http://www.w3.org/2000/svg"
 width="475.000000pt" height="475.000000pt" viewBox="0 0 475.000000 475.000000"
 preserveAspectRatio="xMidYMid meet">

<g transform="translate(0.000000,475.000000) scale(0.100000,-0.100000)"
fill="#000000" stroke="none">
<path d="M2302 4519 c-50 -10 -196 -84 -252 -129 -83 -66 -150 -209 -150 -319
0 -37 -15 -39 -60 -8 -56 37 -75 80 -75 170 0 64 -3 77 -16 77 -18 0 -84 -46
-112 -78 -15 -17 -24 -19 -44 -11 -13 5 -52 9 -86 9 -231 -1 -471 -138 -623
-355 -54 -77 -103 -202 -120 -305 -2 -14 -7 -35 -9 -48 -14 -58 -5 -239 14
-307 29 -102 77 -135 199 -135 28 0 52 -4 52 -10 0 -5 -24 -22 -52 -37 -64
-32 -163 -37 -215 -9 -45 23 -53 20 -53 -14 0 -16 4 -30 8 -30 5 0 18 -25 31
-55 30 -73 72 -129 121 -161 43 -29 132 -54 193 -54 42 0 42 -1 22 -40 -19
-38 -70 -75 -119 -89 -37 -10 -59 -6 -129 24 -13 6 -17 2 -17 -16 1 -63 60
-172 121 -223 67 -57 107 -70 209 -71 81 0 102 4 139 23 l45 24 58 -61 c32
-33 88 -81 125 -108 66 -47 225 -129 296 -152 59 -20 45 -34 -30 -29 -43 2
-84 11 -112 25 -24 12 -49 19 -54 16 -6 -3 -7 -32 -4 -69 8 -88 54 -175 110
-211 23 -15 44 -29 47 -31 3 -2 -4 -11 -15 -20 -30 -25 -123 -143 -205 -262
-40 -58 -99 -133 -131 -167 -68 -73 -82 -115 -50 -147 46 -45 189 -18 313 60
22 14 41 24 43 22 9 -8 -25 -121 -45 -148 -25 -34 -88 -78 -132 -91 -36 -10
-86 6 -115 37 -28 30 -41 30 -47 2 -3 -13 -7 -35 -11 -50 -7 -36 12 -115 38
-153 51 -77 159 -129 262 -127 l41 1 14 -52 c37 -147 139 -326 216 -380 37
-26 44 -28 65 -17 71 37 151 163 200 315 l32 97 36 -6 c20 -3 69 -8 108 -12
40 -4 77 -12 82 -18 5 -6 14 -31 21 -56 22 -82 79 -183 138 -242 67 -69 111
-88 148 -64 76 51 166 244 199 430 l6 39 46 -7 c57 -8 105 5 164 43 61 38 119
147 119 222 0 53 -3 55 -40 34 -14 -8 -50 -14 -79 -15 l-55 0 33 34 c21 21 46
36 69 40 77 12 103 57 63 108 -19 23 -19 31 -9 121 10 83 9 104 -6 159 -23 86
-60 155 -109 206 -23 23 -44 42 -47 42 -3 0 -6 -24 -7 -53 -2 -78 -48 -168
-72 -141 -17 21 -109 141 -130 172 l-23 33 44 43 c79 75 121 205 84 261 l-16
25 -40 -29 c-50 -36 -118 -55 -176 -48 -66 7 -76 23 -22 35 160 38 371 159
506 291 l44 42 34 -26 c128 -97 323 -88 467 21 40 31 99 112 91 126 -3 4 -21
8 -41 8 -71 0 -137 28 -201 86 -59 53 -110 120 -99 130 3 3 33 9 68 14 187 27
289 96 360 245 28 58 38 115 20 115 -5 0 -30 -9 -56 -21 -34 -15 -69 -21 -126
-22 -94 -1 -127 17 -49 26 28 3 74 19 103 34 63 34 98 92 124 206 10 42 21 77
25 77 11 0 10 158 -1 164 -5 4 -12 25 -16 49 -12 72 -71 222 -109 281 -102
153 -280 251 -501 277 -98 11 -246 -2 -320 -28 -36 -12 -41 -12 -52 4 -7 9
-13 24 -13 33 0 25 -54 105 -88 129 l-31 22 -25 -53 c-14 -29 -47 -75 -74
-101 l-48 -48 -90 21 c-49 12 -134 24 -189 27 -55 3 -106 10 -113 16 -8 6 -23
29 -34 51 -42 81 -17 203 58 286 28 31 31 39 18 44 -19 7 -47 6 -102 -5z m78
-17 c0 -5 -11 -19 -24 -31 -58 -54 -88 -188 -62 -269 26 -77 112 -152 176
-152 12 0 18 5 15 10 -3 6 -14 10 -24 10 -11 0 -29 9 -42 20 l-24 19 45 1 c79
0 280 -36 280 -50 0 -5 -22 -19 -50 -32 -54 -25 -67 -42 -22 -32 80 19 186
106 234 191 16 29 34 53 38 53 12 0 54 -59 69 -96 34 -85 5 -210 -67 -286 -28
-30 -39 -48 -30 -48 17 0 78 64 98 101 7 12 20 49 29 82 16 60 17 61 66 78 68
23 233 42 303 34 211 -24 391 -117 483 -250 103 -147 119 -243 60 -356 -54
-103 -149 -211 -216 -246 -23 -12 -228 7 -339 32 -92 21 -226 74 -323 127 -43
23 -81 42 -84 41 -3 -1 -16 27 -28 63 -22 62 -41 90 -41 61 0 -19 44 -147 65
-188 45 -87 146 -189 238 -243 143 -82 225 -109 373 -121 43 -4 108 -16 143
-26 35 -10 83 -19 108 -19 50 0 131 18 151 33 24 19 24 -2 -1 -57 -34 -74 -70
-119 -126 -160 -95 -69 -256 -102 -369 -76 -61 14 -117 38 -109 47 3 2 16 -1
28 -8 39 -20 121 -39 175 -39 97 0 300 75 292 108 -1 4 4 26 11 49 8 22 11 53
7 67 -6 24 -11 26 -60 26 -30 0 -82 9 -117 19 -35 10 -98 22 -139 25 -41 4
-110 15 -153 26 -44 11 -81 20 -82 20 -2 0 -22 -30 -45 -67 -23 -38 -54 -79
-69 -93 -15 -14 -47 -47 -71 -73 l-44 -48 -1 -87 c0 -51 -6 -95 -13 -107 -12
-19 -12 -18 -6 5 4 14 7 54 7 90 0 69 -28 140 -72 187 -62 66 -179 98 -267 74
-58 -16 -126 -79 -154 -143 -46 -108 -35 -216 32 -310 19 -27 23 -36 10 -25
-16 15 -24 16 -41 7 -24 -12 -248 -82 -336 -104 -82 -20 -343 -63 -440 -73
-44 -4 -153 -8 -242 -8 l-161 0 31 -27 c44 -38 152 -111 212 -143 28 -14 39
-23 26 -19 -67 18 -225 130 -309 217 l-62 66 -26 -24 c-57 -53 -214 -59 -295
-12 -74 44 -138 128 -164 214 -6 22 -6 22 29 8 42 -18 58 -18 109 -4 51 14
101 60 123 114 15 35 28 48 66 66 55 25 82 52 98 93 10 28 9 28 -35 -13 -66
-61 -115 -81 -204 -81 -90 0 -142 22 -196 82 -33 36 -71 105 -89 164 -6 21 -6
21 31 8 89 -31 221 -3 269 58 13 17 37 29 69 36 61 13 136 44 232 96 129 68
323 293 323 373 0 23 -8 15 -42 -47 -23 -42 -70 -104 -107 -141 -61 -61 -70
-68 -119 -74 -29 -4 -56 -4 -59 -1 -4 3 5 6 18 6 61 0 104 23 162 84 32 33 62
69 68 78 8 16 6 16 -23 -2 -62 -36 -190 -82 -329 -117 l-139 -35 -68 21 c-83
25 -170 81 -202 129 -22 31 -25 46 -24 111 3 207 201 471 435 580 82 39 223
64 307 55 34 -3 62 -8 62 -11 0 -2 -9 -21 -19 -41 -22 -44 -51 -148 -51 -186
0 -71 55 -169 116 -207 50 -30 64 -18 15 14 -61 40 -93 98 -99 177 -8 119 47
244 142 318 39 30 46 28 35 -10 -17 -60 6 -133 60 -189 29 -30 59 -51 79 -55
22 -5 32 -12 32 -25 0 -36 43 -135 81 -186 23 -31 62 -66 100 -89 l63 -38 -45
-19 c-84 -38 -233 -18 -278 36 -7 10 -17 17 -22 17 -14 0 -10 -72 7 -130 39
-132 158 -238 293 -261 49 -9 66 -8 121 11 72 24 133 68 155 111 27 51 16 49
-37 -5 -44 -45 -65 -58 -122 -75 -60 -19 -77 -20 -130 -10 -118 21 -211 100
-251 215 -36 100 -34 110 13 80 95 -62 185 -57 325 20 33 18 35 34 5 34 -72 1
-174 87 -219 185 -56 124 -57 229 -2 355 44 100 171 204 308 252 53 19 105 23
105 10z m1624 -1069 c0 -179 -45 -306 -124 -345 -95 -46 -354 -47 -480 -2 -8
3 18 14 58 25 141 36 271 109 367 208 62 63 139 179 151 226 14 56 27 4 28
-112z m-3201 15 c34 -62 149 -132 267 -164 37 -10 123 -20 200 -23 l135 -6
-87 -52 c-94 -56 -140 -75 -235 -93 -75 -15 -209 -9 -240 11 -28 17 -51 73
-66 159 -11 59 -12 84 -8 173 1 36 12 34 34 -5z m2181 -24 c3 -8 2 -12 -4 -9
-6 3 -10 10 -10 16 0 14 7 11 14 -7z m76 -110 c29 -46 122 -119 196 -155 75
-37 110 -39 208 -8 77 23 103 19 29 -5 -86 -28 -149 -36 -185 -24 -103 36
-242 151 -301 250 l-20 33 27 -30 c14 -16 35 -44 46 -61z m-1865 -13 l40 -9
-35 0 c-19 0 -46 4 -60 8 -20 6 -21 8 -5 8 11 1 38 -3 60 -7z m72 -7 c-3 -3
-12 -4 -19 -1 -8 3 -5 6 6 6 11 1 17 -2 13 -5z m2413 -59 c0 -6 -116 -65 -127
-65 -9 1 107 67 120 69 4 0 7 -1 7 -4z m-748 -335 c51 -22 91 -64 113 -117 16
-38 21 -88 7 -66 -6 9 -18 3 -42 -22 -34 -35 -34 -37 17 -48 15 -3 23 1 26 12
3 9 5 -1 6 -22 1 -51 -20 -94 -72 -144 -41 -39 -109 -73 -147 -73 -66 0 -122
23 -168 69 -54 54 -72 100 -72 183 0 199 156 306 332 228z m560 -215 c20 -4
39 -14 43 -22 4 -12 2 -13 -7 -6 -7 6 -29 14 -48 18 -43 9 -102 38 -119 59 -7
8 11 2 41 -14 29 -16 70 -31 90 -35z m132 -142 c52 -58 91 -80 176 -102 l73
-18 -37 -40 c-71 -79 -214 -132 -319 -118 -90 12 -200 74 -229 128 -6 13 11 2
39 -24 67 -63 106 -81 184 -87 64 -4 68 -3 132 38 62 40 67 45 73 88 5 35 4
47 -7 51 -24 7 -133 117 -152 153 l-18 33 23 -30 c12 -16 40 -49 62 -72z
m-563 -32 c-13 -23 -96 -92 -131 -108 -66 -31 -200 -17 -243 25 -17 18 -13 17
32 -5 105 -52 217 -29 304 62 48 50 51 52 38 26z m166 -224 c-76 -71 -236
-179 -297 -200 -25 -9 -72 -27 -105 -40 -61 -26 -255 -72 -239 -58 5 5 38 14
74 21 92 17 211 63 283 108 34 22 91 54 127 73 71 36 185 123 195 147 3 8 1
20 -5 26 -5 5 -10 14 -10 19 0 5 9 -1 20 -14 l20 -24 -63 -58z m-1070 7 c-3
-3 -12 -4 -19 -1 -8 3 -5 6 6 6 11 1 17 -2 13 -5z m96 -1 c-7 -2 -19 -2 -25 0
-7 3 -2 5 12 5 14 0 19 -2 13 -5z m-108 -36 c27 -4 27 -5 -4 -3 -21 0 -36 7
-38 16 -3 10 -2 11 4 3 4 -6 22 -13 38 -16z m122 -3 c-3 -3 -12 -4 -19 -1 -8
3 -5 6 6 6 11 1 17 -2 13 -5z m-421 -208 c65 -24 152 -49 192 -56 40 -7 71
-14 69 -17 -16 -15 -292 62 -367 103 -42 22 -19 16 106 -30z m-160 -71 c23 -9
28 -13 12 -10 -14 3 -33 8 -42 11 -27 10 -19 -36 17 -107 23 -47 42 -69 69
-84 l36 -19 51 47 c27 26 53 47 57 47 4 0 -19 -24 -52 -54 -57 -52 -60 -53
-86 -40 -58 30 -109 114 -123 204 -7 39 -6 43 7 32 8 -7 33 -19 54 -27z m1313
-7 c-1 -24 -3 -27 -6 -10 -3 14 -9 20 -16 15 -7 -4 -6 1 2 10 19 24 21 22 20
-15z m-1049 -3 c30 -8 79 -16 108 -16 34 -1 49 -5 40 -10 -15 -10 -66 -4 -152
18 -32 8 -72 12 -90 9 -24 -5 -26 -4 -11 3 28 13 43 13 105 -4z m-147 -12
c-13 -2 -35 -2 -50 0 -16 2 -5 4 22 4 28 0 40 -2 28 -4z m825 0 c-10 -2 -28
-2 -40 0 -13 2 -5 4 17 4 22 1 32 -1 23 -4z m-675 -35 c-6 -7 -13 -30 -16 -52
-5 -30 0 -50 24 -98 27 -53 28 -58 10 -48 -11 6 -33 26 -48 45 -16 19 -31 35
-35 35 -9 0 -29 -61 -23 -70 3 -5 -10 -54 -29 -109 -19 -55 -49 -151 -66 -213
-18 -62 -34 -116 -37 -121 -7 -11 -77 31 -113 68 -17 18 -33 47 -36 66 -5 30
2 44 64 127 38 52 109 137 158 189 74 80 89 92 95 77 4 -11 19 -30 34 -44 l27
-25 -21 42 c-11 23 -21 55 -21 70 0 26 24 73 37 73 3 0 1 -6 -4 -12z m253 -14
c-30 -21 -42 -17 -15 5 13 11 26 17 29 14 3 -2 -4 -11 -14 -19z m37 -9 c-3 -9
-8 -14 -10 -11 -3 3 -2 9 2 15 9 16 15 13 8 -4z m-146 -5 c76 0 80 -9 6 -14
-29 -2 -61 2 -79 10 -16 8 -21 12 -11 9 10 -3 48 -5 84 -5z m118 -20 c-9 -15
-67 -39 -104 -44 -19 -2 -54 3 -78 11 -24 9 -47 13 -50 9 -13 -12 30 -97 64
-126 43 -39 65 -47 140 -56 44 -4 67 -2 89 9 16 8 54 18 84 22 60 8 80 19 80
44 0 18 61 80 99 100 56 31 81 32 108 5 l25 -25 34 20 34 20 69 -87 c145 -181
241 -317 241 -343 0 -31 -46 -97 -93 -133 -19 -14 -37 -26 -40 -26 -3 0 -13
26 -22 58 -60 212 -113 352 -123 324 -2 -7 5 -36 17 -65 18 -48 94 -308 122
-420 7 -27 19 -52 30 -58 11 -5 19 -15 19 -22 0 -22 62 -75 114 -97 51 -23
133 -30 179 -16 23 7 27 5 27 -12 0 -28 -36 -110 -65 -149 -30 -38 -84 -73
-133 -84 -54 -13 -146 8 -181 40 -53 49 -62 56 -56 38 13 -32 -154 -62 -401
-73 -170 -7 -282 3 -452 43 l-113 27 -15 -22 c-8 -12 -21 -22 -29 -22 -8 0
-35 -13 -60 -29 -61 -39 -111 -47 -177 -27 -128 37 -199 114 -206 222 -3 35
-2 64 1 64 2 0 25 -11 50 -26 51 -28 92 -26 157 6 59 30 130 121 130 167 0 35
38 188 86 341 24 78 44 149 44 157 0 26 16 16 28 -19 15 -40 93 -116 148 -144
49 -25 128 -41 177 -36 50 4 132 50 168 93 41 50 36 62 -8 19 -47 -45 -136
-88 -184 -88 -79 0 -188 49 -246 112 -40 42 -72 178 -43 178 6 0 10 -4 10 -9
0 -27 201 -121 258 -121 33 0 19 12 -33 29 -82 28 -165 125 -165 195 0 24 0
24 47 10 62 -19 121 -17 163 5 44 23 42 23 35 11z m968 -290 c-3 -3 -8 1 -10
8 -7 18 -21 15 -26 -5 -3 -10 -5 2 -6 27 l-1 44 24 -34 c13 -19 22 -37 19 -40z
m-1607 -195 c21 -45 87 -104 124 -112 17 -3 30 -8 30 -12 -1 -13 -89 -71 -160
-105 -108 -52 -200 -47 -200 12 0 12 20 45 45 74 24 29 66 81 92 115 27 35 49
63 50 63 1 0 9 -16 19 -35z m1528 -16 c10 -18 59 -79 107 -138 49 -58 89 -110
89 -114 0 -4 -17 -15 -37 -24 -85 -35 -237 11 -315 95 l-42 45 25 16 c43 28
98 82 120 117 11 19 24 34 28 34 4 0 15 -14 25 -31z m-174 -649 c6 0 9 -15 9
-32 -2 -32 -2 -32 -6 -5 -3 17 -14 32 -29 39 -13 6 -31 23 -41 37 -15 23 -13
23 21 -6 20 -18 41 -33 46 -33z m-1163 -26 c-30 -16 -30 -31 -1 -103 16 -39
18 -49 5 -35 -5 5 -16 34 -25 64 -16 54 -16 55 5 73 12 9 26 17 33 17 6 -1 -1
-8 -17 -16z m678 -44 l40 -9 -45 4 c-25 3 -86 8 -136 11 l-90 7 -22 -64 c-12
-35 -19 -48 -16 -29 4 19 13 50 20 69 l14 34 98 -7 c53 -4 115 -11 137 -16z
m464 -101 c-24 -76 -42 -95 -100 -104 l-34 -5 39 15 c57 22 64 30 88 111 13
41 24 70 26 64 2 -5 -7 -42 -19 -81z m-412 49 c-3 -7 -5 -2 -5 12 0 14 2 19 5
13 2 -7 2 -19 0 -25z m70 -145 c18 -14 6 -18 -13 -5 -12 8 -54 105 -54 124 0
7 12 -14 25 -47 14 -33 32 -66 42 -72z m-698 12 c24 -8 55 -16 70 -16 19 -1
21 -3 7 -6 -39 -10 -156 34 -156 59 0 6 8 4 18 -5 10 -9 37 -23 61 -32z m277
0 c-9 -14 -24 -25 -34 -24 -13 0 -12 3 6 11 12 6 25 23 29 37 3 14 8 20 11 13
2 -7 -3 -24 -12 -37z m-197 -55 c41 -7 96 -10 123 -7 26 3 48 4 48 1 0 -36
-102 -154 -133 -154 -23 0 -123 103 -155 159 l-22 40 32 -13 c18 -8 66 -19
107 -26z m119 23 c-15 -2 -42 -2 -60 0 -18 2 -6 4 27 4 33 0 48 -2 33 -4z
m549 1 c-3 -3 -12 -4 -19 -1 -8 3 -5 6 6 6 11 1 17 -2 13 -5z m146 -1 c-7 -2
-19 -2 -25 0 -7 3 -2 5 12 5 14 0 19 -2 13 -5z m97 -28 c-18 -47 -82 -136
-106 -147 -18 -8 -30 -5 -66 20 -23 16 -63 53 -87 82 l-44 52 44 -8 c69 -12
150 -7 210 13 30 11 55 18 57 17 1 -1 -2 -14 -8 -29z"/>
<path d="M1522 2904 c-113 -55 -171 -200 -133 -336 36 -130 199 -212 319 -162
93 38 147 128 147 244 0 207 -166 334 -333 254z m168 -15 c78 -35 111 -77 136
-174 18 -65 17 -100 -4 -157 -32 -88 -112 -147 -197 -148 -59 0 -138 41 -173
89 -88 121 -55 317 63 378 71 37 113 40 175 12z"/>
<path d="M1546 2768 c-46 -49 -60 -89 -47 -136 14 -48 31 -72 64 -92 88 -54
179 7 179 119 -1 87 -40 139 -111 148 -39 5 -44 3 -85 -39z"/>
<path d="M2157 2454 c-13 -13 -7 -24 14 -24 11 0 19 5 17 12 -5 14 -22 21 -31
12z"/>
<path d="M2790 2823 c-48 -18 -100 -100 -100 -155 0 -72 68 -148 132 -148 48
0 106 36 128 80 51 99 -2 207 -110 224 -19 3 -42 2 -50 -1z"/>
</g>
</svg>
